<?xml version="1.0" standalone="no"?>
<!DOCTYPE svg PUBLIC "-//W3C//DTD SVG 20010904//EN"
 "http://www.w3.org/TR/2001/REC-SVG-20010904/DTD/svg10.dtd">
<svg version="1.0" xmlns="http://www.w3.org/2000/svg"
 width="700.000000pt" height="700.000000pt" viewBox="0 0 700.000000 700.000000"
 preserveAspectRatio="xMidYMid meet">
<metadata>
Created by potrace 1.14, written by Peter Selinger 2001-2017
</metadata>
<g transform="translate(0.000000,700.000000) scale(0.100000,-0.100000)"
fill="#000000" stroke="none">
<path d="M3497 6234 c-1 -1 -47 -4 -102 -8 -122 -7 -129 -9 -325 -51 -76 -16
-250 -73 -264 -86 -6 -5 -16 -9 -23 -9 -25 0 -238 -112 -338 -177 -123 -81
-220 -160 -323 -262 -120 -119 -257 -297 -321 -416 -12 -22 -26 -47 -31 -55
-16 -24 -95 -200 -118 -260 -18 -50 -59 -188 -67 -228 -2 -9 -8 -37 -13 -62
-43 -190 -50 -468 -17 -705 32 -237 139 -528 272 -745 148 -240 400 -498 613
-630 30 -19 57 -37 60 -40 14 -15 166 -93 260 -133 85 -36 253 -93 300 -102
14 -3 36 -7 50 -10 233 -52 518 -63 730 -30 461 73 846 267 1159 585 305 310
501 709 562 1145 17 115 17 426 1 532 -28 184 -72 345 -137 503 -34 83 -117
244 -127 248 -4 2 -8 8 -8 13 0 34 -193 281 -311 398 -292 290 -701 499 -1089
557 -19 3 -46 7 -59 9 -61 10 -326 25 -334 19z m108 -364 c32 -74 70 -162 85
-195 80 -175 231 -527 227 -531 -3 -3 -63 -16 -142 -30 -257 -44 -590 -160
-775 -270 -276 -162 -444 -359 -524 -610 -14 -43 -27 -95 -30 -114 -3 -19 -8
-46 -11 -60 -8 -37 -9 -246 -1 -315 40 -345 227 -788 491 -1161 l56 -79 -73
75 c-64 65 -174 186 -258 286 -51 59 -158 202 -222 294 -357 517 -513 1008
-461 1460 12 109 47 255 80 330 140 329 352 558 648 700 157 76 275 105 460
114 109 6 181 27 248 73 45 31 101 101 119 150 7 18 15 30 18 25 4 -4 33 -68
65 -142z m735 -265 c25 -28 67 -77 95 -110 27 -33 52 -62 55 -65 46 -43 294
-405 360 -525 289 -526 369 -978 249 -1415 -20 -76 -27 -91 -85 -215 -106
-227 -311 -441 -546 -570 -160 -87 -319 -129 -528 -139 -167 -8 -292 -86 -349
-217 -18 -43 -19 -44 -29 -19 -5 14 -46 106 -89 205 -44 99 -126 285 -183 413
-56 128 -100 235 -97 238 3 4 41 12 84 20 89 16 89 16 203 42 331 77 635 214
825 372 318 264 440 646 350 1095 -9 44 -18 89 -21 101 -8 40 -76 240 -110
322 -76 185 -219 443 -331 599 -29 41 -53 76 -53 78 0 4 125 -127 200 -210z
m-598 -1278 c35 -35 82 -72 105 -83 32 -16 39 -24 31 -32 -7 -7 -16 -12 -20
-12 -21 0 -122 -86 -161 -135 -23 -30 -55 -87 -71 -127 -16 -40 -32 -77 -36
-81 -4 -4 -19 23 -34 61 -49 126 -115 208 -215 267 -28 17 -51 32 -51 35 0 3
20 15 44 28 93 50 174 150 222 275 l27 71 48 -103 c39 -82 61 -114 111 -164z"/>
<path d="M5224 2711 c3 -14 16 -66 29 -116 14 -49 44 -162 67 -250 23 -88 50
-194 61 -235 11 -41 22 -85 25 -97 11 -55 20 -66 57 -69 21 -2 37 -2 37 0 0 2
22 86 49 187 68 252 101 380 107 404 2 11 15 61 28 110 l24 90 -35 3 c-19 2
-37 2 -38 0 -2 -2 -15 -46 -29 -98 -14 -52 -32 -122 -41 -155 -9 -33 -18 -67
-20 -75 -1 -8 -15 -59 -30 -113 -14 -53 -28 -105 -30 -115 -12 -52 -23 -76
-28 -62 -3 8 -41 150 -84 315 l-78 300 -38 1 c-35 1 -37 -1 -33 -25z"/>
<path d="M5829 2738 c-1 -2 -2 -180 -3 -395 -1 -424 -5 -395 49 -397 20 -1 20
6 20 394 l0 395 -32 3 c-18 2 -34 2 -34 0z"/>
<path d="M6040 2343 l0 -398 35 -1 35 -1 0 142 0 142 71 -1 c107 -2 150 24
192 114 16 35 21 66 21 140 1 86 -2 101 -29 155 -46 92 -72 105 -211 105
l-114 0 0 -397z m243 260 c46 -41 57 -145 23 -212 -22 -41 -29 -44 -118 -47
l-78 -2 0 138 c0 102 3 139 13 143 31 11 140 -3 160 -20z"/>
<path d="M763 1763 c-5 -2 -7 -112 -6 -246 2 -133 4 -429 6 -657 l4 -415 146
-3 147 -3 49 103 48 103 -2 451 -3 450 -51 110 -52 110 -139 -1 c-76 0 -143
-1 -147 -2z m291 -203 l26 -55 3 -405 c4 -403 3 -405 -19 -454 -12 -27 -27
-52 -33 -55 -12 -8 -179 -7 -187 1 -3 4 -8 235 -10 515 l-5 508 100 0 99 0 26
-55z"/>
<path d="M1529 1757 c-1 -7 -1 -15 -1 -18 1 -3 3 -25 6 -50 3 -24 8 -66 11
-94 3 -27 8 -61 10 -75 3 -14 10 -63 15 -110 6 -47 13 -96 15 -110 2 -14 7
-52 10 -85 4 -33 9 -69 10 -80 2 -11 6 -42 9 -70 15 -117 18 -141 21 -165 2
-14 11 -81 20 -150 8 -69 18 -141 21 -160 2 -19 7 -57 10 -85 3 -27 8 -53 11
-57 2 -5 22 -8 44 -8 36 0 39 2 40 28 0 15 2 34 3 42 2 8 7 51 11 94 4 43 8
86 10 96 2 9 6 52 9 96 4 43 9 95 11 114 3 19 7 55 9 80 7 79 17 174 21 205 5
35 17 161 19 192 3 38 12 34 14 -6 2 -21 4 -47 6 -58 2 -10 7 -46 11 -78 4
-33 8 -71 10 -85 2 -14 7 -47 10 -75 3 -27 8 -68 11 -90 2 -22 7 -51 9 -65 2
-14 7 -50 10 -80 3 -30 8 -70 10 -88 14 -110 25 -193 30 -237 9 -81 12 -85 56
-85 30 0 39 4 40 18 1 9 2 28 4 42 9 98 17 162 20 182 2 13 6 51 9 85 9 100
16 176 21 208 5 38 13 114 20 185 8 82 16 162 20 190 2 14 6 54 10 90 3 36 8
81 10 100 7 55 18 162 19 194 1 26 -3 30 -27 31 -37 2 -44 -9 -52 -90 -3 -38
-8 -83 -10 -100 -3 -16 -7 -57 -10 -90 -6 -67 -14 -142 -21 -195 -2 -19 -6
-62 -9 -95 -3 -33 -8 -82 -11 -110 -8 -63 -10 -82 -19 -175 -4 -41 -9 -82 -11
-90 -1 -8 -3 -30 -3 -49 -1 -19 -3 -32 -5 -30 -4 4 -14 65 -31 209 -11 91 -17
136 -20 160 -2 14 -18 138 -35 275 -40 327 -40 326 -46 357 -4 22 -10 26 -34
24 -38 -3 -41 -7 -46 -53 -1 -21 -6 -62 -9 -90 -3 -29 -8 -79 -11 -110 -3 -32
-7 -74 -9 -93 -2 -19 -7 -62 -10 -95 -6 -63 -12 -122 -20 -190 -3 -22 -7 -62
-9 -90 -5 -51 -17 -165 -21 -200 -1 -11 -3 -38 -4 -59 -2 -67 -13 -40 -25 64
-4 30 -9 71 -11 90 -3 19 -10 69 -16 110 -5 41 -12 91 -14 110 -2 19 -6 53 -9
75 -11 81 -18 141 -21 165 -1 14 -6 45 -9 70 -12 87 -16 115 -21 160 -9 77
-17 125 -21 129 -10 11 -64 9 -65 -2z"/>
<path d="M2820 1760 c-6 -4 -12 -20 -14 -36 -2 -16 -7 -48 -10 -71 -3 -24 -8
-62 -11 -85 -5 -40 -12 -90 -20 -148 -2 -14 -6 -45 -10 -70 -6 -46 -14 -106
-20 -150 -2 -14 -6 -47 -10 -75 -3 -27 -7 -59 -9 -71 -2 -12 -7 -45 -11 -75
-3 -30 -10 -81 -15 -114 -9 -58 -13 -89 -25 -185 -3 -25 -8 -56 -10 -70 -2
-14 -7 -52 -11 -85 -3 -33 -7 -64 -8 -70 0 -5 16 -11 37 -13 27 -2 37 1 37 11
0 8 9 82 20 163 11 82 20 150 20 152 0 6 240 0 244 -6 4 -7 12 -54 21 -122 3
-19 11 -71 18 -115 l12 -80 38 -3 c33 -3 38 -1 34 15 -5 16 -11 54 -22 143 -4
26 -12 76 -20 120 -2 14 -7 45 -10 70 -3 25 -8 56 -10 70 -2 14 -7 43 -10 65
-3 23 -7 52 -10 65 -3 14 -7 45 -10 70 -3 25 -12 88 -21 140 -8 52 -17 111
-20 130 -2 19 -9 60 -14 90 -5 30 -12 75 -15 100 -3 25 -11 74 -17 110 -5 36
-11 78 -13 93 -1 15 -6 31 -10 35 -8 9 -82 10 -95 2z m64 -255 c5 -37 62 -410
71 -465 15 -90 16 -118 3 -122 -7 -2 -51 -4 -97 -3 -95 1 -94 0 -81 81 4 27
11 72 14 99 4 28 11 82 17 120 5 39 12 88 15 110 2 22 6 49 8 60 2 11 8 49 12
85 4 36 9 68 10 73 1 4 3 22 4 40 l2 32 9 -35 c4 -19 10 -53 13 -75z"/>
<path d="M3521 1761 c-8 -6 -8 -218 0 -1058 l3 -263 50 -1 c155 -1 302 3 308
9 4 4 9 36 13 72 l6 66 -138 -1 c-76 -1 -145 1 -153 3 -13 3 -16 32 -17 195 0
106 -2 370 -4 588 l-3 395 -28 0 c-15 0 -32 -2 -37 -5z"/>
<path d="M4344 1756 c-2 -6 -2 -227 0 -491 3 -264 5 -558 5 -652 l1 -173 183
0 183 0 0 23 c1 12 4 45 7 73 l7 50 -153 0 -152 -1 -2 55 c-1 30 -4 289 -7
575 -2 286 -5 527 -5 536 -1 18 -60 22 -67 5z"/>
<path d="M5169 1750 c-1 -28 2 -655 5 -978 2 -177 6 -325 9 -328 6 -6 348 -6
354 0 5 4 9 38 15 101 l3 40 -153 0 -152 0 -1 115 c0 63 -1 167 -2 230 l-1
115 129 0 130 1 0 74 0 75 -130 0 -130 0 -2 207 c-1 149 2 208 10 210 7 2 74
4 149 3 l137 0 0 75 0 75 -184 0 c-158 0 -185 -2 -186 -15z"/>
<path d="M5942 1760 c-9 -6 -9 -121 1 -136 3 -6 39 -10 87 -9 44 1 84 -3 87
-8 5 -9 11 -446 12 -969 l1 -198 38 0 37 0 -1 213 c-1 116 -4 381 -6 587 l-3
375 93 0 93 0 -3 75 -3 75 -213 0 c-117 1 -216 -2 -220 -5z"/>
</g>
</svg>
