<?xml version="1.0" encoding="UTF-8" standalone="no"?>
<svg
   data-noselect=""
   viewBox="0 0 300 100"
   width="300"
   height="100"
   preserveAspectRatio="none"
   version="1.1"
   class="svg-canvas"
   id="svg59"
   sodipodi:docname="dwallet.vip.logo.svg"
   inkscape:version="1.1.2 (76b9e6a115, 2022-02-25)"
   xmlns:inkscape="http://www.inkscape.org/namespaces/inkscape"
   xmlns:sodipodi="http://sodipodi.sourceforge.net/DTD/sodipodi-0.dtd"
   xmlns="http://www.w3.org/2000/svg"
   xmlns:svg="http://www.w3.org/2000/svg">
  <sodipodi:namedview
     id="namedview61"
     pagecolor="#ffffff"
     bordercolor="#666666"
     borderopacity="1.0"
     inkscape:pageshadow="2"
     inkscape:pageopacity="0.0"
     inkscape:pagecheckerboard="true"
     showgrid="false"
     inkscape:zoom="1.9186164"
     inkscape:cx="182.68373"
     inkscape:cy="64.369303"
     inkscape:window-width="1848"
     inkscape:window-height="1009"
     inkscape:window-x="72"
     inkscape:window-y="34"
     inkscape:window-maximized="1"
     inkscape:current-layer="svg59" />
  <defs
     id="defs2" />
  <path
     d="M 50.65162,4 C 24.877866,4 4,24.773273 4,50.417904 c 0,25.644634 20.877866,46.417904 46.65162,46.417904 25.773752,0 46.651617,-20.77327 46.651617,-46.417904 C 97.303237,24.773273 76.425372,4 50.65162,4 Z m -9.397854,10.862573 c 7.709617,0 8.947658,-6.1031978 8.947658,-6.1031978 L 59.205356,29.196691 C -3.0343214,39.051397 37.708468,90.284669 37.708468,90.284669 -7.480012,44.930624 21.670214,14.862573 41.253766,14.862573 Z m 17.163745,35.555331 -1.181767,0.671911 c -2.19471,1.231837 -3.882946,3.191582 -4.839614,5.487279 l -1.012942,2.575662 -1.012941,-2.575662 c -0.956669,-2.351688 -2.644906,-4.255442 -4.839614,-5.487279 l -1.181766,-0.671911 0.956668,-0.503934 c 2.307256,-1.231837 4.108043,-3.247573 5.064712,-5.711249 l 1.012941,-2.51967 1.012942,2.51967 c 0.956668,2.407683 2.757454,4.479412 5.064712,5.711249 z m 1.631963,38.074998 c -7.709618,0 -8.947659,6.103202 -8.947659,6.103202 L 42.097885,74.158788 C 104.33756,64.248089 63.594772,13.014815 63.594772,13.014815 108.78326,58.42485 79.633026,88.492902 60.049474,88.492902 Z"
     fill="#bc9d5d"
     stroke-width="0"
     id="path9" />
  <g
     id="shape_bZA9wR1feH"
     transform="matrix(0.70927829,0,0,1.4570636,80.382413,-131.52744)"
     filter=""
     style="opacity:1">
    <g
       id="g33">
      <svg
         version="1.1"
         width="420"
         height="247"
         viewBox="0 0 420 247"
         id="svg31">
        <g
           data-width="282.693215294466"
           transform="translate(34.403392)"
           id="g29">
          <path
             d="m 16.75,-24.93 4.21,4.76 -2.09,19.83 -5.2,4.72 H 0 L 0.31,1.2 h 0.03 l 2.47,-23.81 0.24,-2.32 z m -1.13,23.73 1.92,-18.15 -2.13,-2.36 H 6.06 L 3.7,1.2 h 9.32 z"
             transform="matrix(1,0,0.12278456,1,0,137)"
             fill="#bc9d5d"
             stroke="#bc9d5d"
             stroke-width="0.057"
             data-glyph-w="39.068566470638"
             data-glyph-h="41.1"
             data-glyph-ascender="34.25"
             data-glyph-descender="-6.85"
             id="path15" />
          <path
             d="m 21.44,-1.58 8.08,-23.35 h 3.36 L 22.74,4.38 h -3.8 L 15.76,-17.95 8.19,4.38 H 4.38 L 0,-24.93 h 3.36 l 3.49,23.35 7.91,-23.35 h 3.36 z"
             transform="matrix(1,0,0.12278456,1,39.068566,137)"
             fill="#bc9d5d"
             stroke="#bc9d5d"
             stroke-width="0.057"
             data-glyph-w="48.281816470638"
             data-glyph-h="41.1"
             data-glyph-ascender="34.25"
             data-glyph-descender="-6.85"
             id="path17" />
          <path
             d="M 22.67,4.38 H 19.32 L 17.88,-2.91 H 6.34 L 3.36,4.38 H 0 l 11.95,-29.31 h 4.94 z M 14.11,-21.99 7.64,-6.13 h 9.59 z"
             transform="matrix(1,0,0.12278456,1,87.350383,137)"
             fill="#bc9d5d"
             stroke="#bc9d5d"
             stroke-width="0.057"
             data-glyph-w="41.671566470638"
             data-glyph-h="41.1"
             data-glyph-ascender="34.25"
             data-glyph-descender="-6.85"
             id="path19" />
          <path
             d="M 6.44,-24.93 3.7,1.2 H 18.05 L 16.89,4.38 H 0 l 3.08,-29.31 z"
             transform="matrix(1,0,0.12278456,1,129.02195,137)"
             fill="#bc9d5d"
             stroke="#bc9d5d"
             stroke-width="0.057"
             data-glyph-w="38.726066470638"
             data-glyph-h="41.1"
             data-glyph-ascender="34.25"
             data-glyph-descender="-6.85"
             id="path21" />
          <path
             d="M 6.44,-24.93 3.7,1.2 H 18.05 L 16.89,4.38 H 0 l 3.08,-29.31 z"
             transform="matrix(1,0,0.12278456,1,167.74802,137)"
             fill="#bc9d5d"
             stroke="#bc9d5d"
             stroke-width="0.057"
             data-glyph-w="38.726066470638"
             data-glyph-h="41.1"
             data-glyph-ascender="34.25"
             data-glyph-descender="-6.85"
             id="path23" />
          <path
             d="m 20.38,-24.93 -0.34,3.22 H 6.1 l -1,9.41 h 12.33 l -0.34,3.22 H 4.76 L 3.7,1.2 H 18.05 L 16.89,4.38 H 0 l 1.4,-13.46 0.35,-3.22 0.99,-9.41 0.34,-3.22 z"
             transform="matrix(1,0,0.12278456,1,206.47408,137)"
             fill="#bc9d5d"
             stroke="#bc9d5d"
             stroke-width="0.057"
             data-glyph-w="38.760316470638"
             data-glyph-h="41.1"
             data-glyph-ascender="34.25"
             data-glyph-descender="-6.85"
             id="path25" />
          <path
             d="M 0.34,-24.93 H 21 l -0.35,3.22 H 11.99 L 9.25,4.38 H 5.89 L 8.63,-21.71 H 0 Z"
             transform="matrix(1,0,0.12278456,1,245.2344,137)"
             fill="#bc9d5d"
             stroke="#bc9d5d"
             stroke-width="0.057"
             data-glyph-w="37.458816470638"
             data-glyph-h="41.1"
             data-glyph-ascender="34.25"
             data-glyph-descender="-6.85"
             id="path27" />
        </g>
      </svg>
    </g>
  </g>
  <g
     id="shape_KGivLP6lOk"
     transform="matrix(0.73981049,0,0,0.47730783,180.84484,-3.7980048)"
     filter=""
     style="opacity:1">
    <g
       id="g46">
      <svg
         version="1.1"
         width="323.39999"
         height="398.10001"
         viewBox="0 0 323.4 398.1"
         id="svg44">
        <g
           data-width="101.18774358801599"
           transform="translate(55.756128)"
           id="g42">
          <path
             d="m 16.92,-6.38 h 5.84 L 39.13,-44.97 H 33.16 L 19.84,-13.62 6.54,-44.97 h -6 z"
             transform="translate(0,216.05)"
             fill="#bc9d5d"
             stroke="#bc9d5d"
             stroke-width="0.092"
             data-glyph-w="45.674902159547"
             data-glyph-h="57.674267578125"
             data-glyph-ascender="46.37724609375"
             data-glyph-descender="-11.297021484375"
             id="path36" />
          <path
             d="M 8.22,-6.38 V -44.97 H 2.7 v 38.59 z"
             transform="translate(45.674902,216.05)"
             fill="#bc9d5d"
             stroke="#bc9d5d"
             stroke-width="0.092"
             data-glyph-w="16.918847472047"
             data-glyph-h="57.674267578125"
             data-glyph-ascender="46.37724609375"
             data-glyph-descender="-11.297021484375"
             id="path38" />
          <path
             d="M 18.57,-20.16 H 8.22 V -6.38 H 2.7 v -38.59 h 15.87 q 5.13,0 8.75,3.62 v 0 q 3.65,3.65 3.65,8.78 v 0 q 0,5.14 -3.65,8.79 v 0 q -3.62,3.62 -8.75,3.62 z m 0,-19.3 H 8.22 v 13.78 h 10.35 q 2.83,0 4.86,-2.02 v 0 q 2.03,-2 2.03,-4.87 v 0 q 0,-2.86 -2.03,-4.86 v 0 q -2.03,-2.03 -4.86,-2.03 z"
             transform="translate(62.59375,216.05)"
             fill="#bc9d5d"
             stroke="#bc9d5d"
             stroke-width="0.092"
             data-glyph-w="38.593993956422"
             data-glyph-h="57.674267578125"
             data-glyph-ascender="46.37724609375"
             data-glyph-descender="-11.297021484375"
             id="path40" />
        </g>
      </svg>
    </g>
  </g>
  <defs
     id="defs55">
    <pattern
       id="wm_tile"
       x="0"
       y="0"
       width="20%"
       height="27%"
       patternunits="objectBoundingBox">
      <g
         id="wm_lm"
         transform="translate(-188.000000, -323.000000)"
         fill="#cccccc">
        <text
           font-size="15"
           transform="translate(270.490979, 373.245789) rotate(-390.000000) translate(-270.490979, -373.245789)"
           id="text51"><tspan
             x="187.490979"
             opacity=".3"
             y="378.245789"
             id="tspan49">copyright © copyright © </tspan></text>
      </g>
    </pattern>
  </defs>
</svg>
